PathFileType	4	(X/Y/Z)	C:\Users\dbl\Desktop\20210112\20210112\bx_n_5_902.trc
DataRate	CameraRate	NumFrames	NumMarkers	Units	OrigDataRate	OrigDataStartFrame	OrigNumFrames
50.00	50.00	       8	43	mm	50.00	341	       545
Frame#	Time	Top.Head			R.Acromium			L.Acromium			Sternum			R.ASIS			L.ASIS			V.Sacral			R.Thigh.Upper			R.Thigh.Front			R.Thigh.Rear			R.Knee.Lat			R.Knee.Med			R.Shank.Upper			R.Shank.Front			R.Shank.Rear			R.Ankle.Lat			R.Midfoot.Lat			R.Toe.Lat			R.Toe.Tip			R.Toe.Med			R.Ankle.Med			R.Midfoot.Sup			R.Heel			L.Thigh.Upper			L.Thigh.Front			L.Thigh.Rear			L.Knee.Lat			L.Knee.Med			L.Shank.Upper			L.Shank.Front			L.Shank.Rear			L.Ankle.Lat			L.Midfoot.Lat			L.Toe.Lat			L.Toe.Tip			L.Toe.Med			L.Ankle.Med			L.Midfoot.Sup			L.Heel			origin1 front left			origin2 front right			origin 3 back right			origin 4 back leftt			
		X1	Y1	Z1	X2	Y2	Z2	X3	Y3	Z3	X4	Y4	Z4	X5	Y5	Z5	X6	Y6	Z6	X7	Y7	Z7	X8	Y8	Z8	X9	Y9	Z9	X10	Y10	Z10	X11	Y11	Z11	X12	Y12	Z12	X13	Y13	Z13	X14	Y14	Z14	X15	Y15	Z15	X16	Y16	Z16	X17	Y17	Z17	X18	Y18	Z18	X19	Y19	Z19	X20	Y20	Z20	X21	Y21	Z21	X22	Y22	Z22	X23	Y23	Z23	X24	Y24	Z24	X25	Y25	Z25	X26	Y26	Z26	X27	Y27	Z27	X28	Y28	Z28	X29	Y29	Z29	X30	Y30	Z30	X31	Y31	Z31	X32	Y32	Z32	X33	Y33	Z33	X34	Y34	Z34	X35	Y35	Z35	X36	Y36	Z36	X37	Y37	Z37	X38	Y38	Z38	X39	Y39	Z39	X40	Y40	Z40	X41	Y41	Z41	X42	Y42	Z42	X43	Y43	Z43	

341	6.800	-116.27734	119.28558	1051.96045	-334.26547	-58.38087	948.94873	-364.30927	257.51654	948.75647	-508.02069	83.16139	924.79126	-799.70129	-20.16679	959.70392	-794.87976	223.79079	973.79095	-938.93909	78.58434	1098.20361	-867.04022	-86.61014	854.35461	-780.05609	-13.26028	799.61890	-858.61841	-77.59084	740.26642	-837.93030	-45.89404	604.42511	-820.03064	64.52251	563.31195	-832.93768	-43.74876	555.17828	-773.51758	8.97766	523.76221	-848.59680	-57.34175	466.47501	-763.42688	-26.38403	201.90642	-647.27435	-67.03737	161.75000	-604.89380	-72.18159	157.13596	-548.88959	-20.50855	162.84958	-601.20868	30.35116	165.81230	-691.07959	55.40014	178.84485	-675.87524	51.71790	163.16545	-796.07349	32.40786	172.27272	-899.31506	278.76151	860.13873	-784.27979	211.58447	787.94678	-869.81152	275.52185	724.77319	-868.56311	250.65430	621.24573	-819.41345	140.65997	563.53436	-850.65491	246.54190	558.30420	-787.77454	202.52045	534.43286	-866.68872	260.24835	478.95926	-773.91119	232.52750	201.31015	-658.96838	296.90540	158.05385	-622.30414	304.41592	159.07787	-557.96790	251.28244	164.08617	-594.51306	215.82675	173.08699	-724.44177	158.43359	222.46222	-678.02551	174.82335	163.19127	-800.66461	185.12714	179.96291	-528.17493	303.97305	146.30634	-518.22363	-72.78777	143.05051	-875.95032	-78.53325	141.01759	-882.50745	296.21960	144.77841	
342	6.820	-116.24493	119.27810	1052.69971	-334.08438	-58.27608	950.25970	-364.22742	257.47278	949.66669	-507.72241	83.30850	926.01074	-799.45667	-19.86942	959.85284	-794.83423	223.92001	973.83801	-939.16687	78.92497	1098.11047	-867.08313	-86.50093	854.35406	-780.11719	-13.00567	799.70398	-858.60083	-77.24326	740.21246	-837.86938	-45.66872	604.41553	-819.88464	64.75253	563.28339	-832.89294	-43.58266	555.10577	-773.45313	9.08705	523.80157	-848.54211	-57.17245	466.45779	-763.46722	-26.27077	201.82202	-647.27527	-67.05357	161.75542	-604.92554	-72.16601	157.12701	-548.88477	-20.50497	162.86322	-601.17511	30.34510	165.86002	-709.90521	59.54680	198.48563	-675.84973	51.84193	163.01050	-796.06708	32.51611	172.24937	-899.26270	279.10904	860.10028	-784.07385	211.83957	788.01569	-869.61414	275.79456	724.85376	-868.46033	250.89268	621.26392	-819.26544	140.86931	563.56934	-850.55646	246.76787	558.20392	-787.70386	202.79584	534.26031	-866.61487	260.38281	478.86581	-773.98242	232.54028	201.24240	-658.97968	296.91434	158.02466	-622.29718	304.41083	159.07550	-557.97827	251.27213	164.10146	-594.50177	215.88145	173.14514	-724.53247	158.50528	222.46014	-678.03265	174.83290	163.18462	-800.68091	185.12451	179.92310	-528.16418	303.97742	146.31071	-518.22247	-72.77853	143.05516	-875.98718	-78.50060	140.99422	-882.51239	296.19354	144.75493	
343	6.840	-116.35059	119.23040	1053.90381	-334.00787	-58.15325	951.98438	-364.22009	257.30597	950.48260	-507.45514	83.47283	927.44708	-799.18591	-19.56753	960.04968	-794.84882	224.11240	973.89087	-939.45337	79.19617	1097.98962	-867.27765	-86.36362	854.33997	-780.26990	-12.80423	799.67242	-858.75232	-76.95277	740.12427	-837.98285	-45.44781	604.34161	-819.81726	64.94160	563.16766	-832.94135	-43.41486	555.01672	-773.45221	9.20910	523.78613	-848.67029	-57.06339	466.41199	-763.51532	-26.14735	201.72981	-647.26782	-67.04745	161.73672	-604.94244	-72.18481	157.15515	-548.88342	-20.50336	162.87469	-601.16089	30.34005	165.89992	-724.86920	62.83119	214.09013	-675.84540	52.01860	162.93465	-796.05371	32.68623	172.18782	-899.26538	279.37613	860.02789	-784.04071	212.05223	787.89191	-869.60254	275.99023	724.83490	-868.48883	251.08719	621.21375	-819.14545	141.12187	563.53552	-850.58228	246.93463	558.12799	-787.73792	203.02335	534.10303	-866.64160	260.57071	478.79306	-774.07391	232.52560	201.19211	-659.00317	296.93829	157.98679	-622.28528	304.41425	159.06454	-558.03528	251.28436	164.11685	-594.47522	215.94446	173.18996	-724.60089	158.52121	222.44147	-678.00238	174.79884	163.20978	-800.67841	185.10211	179.85843	-528.15100	304.00906	146.33147	-518.21619	-72.75108	143.04749	-875.99646	-78.48595	140.99001	-882.51160	296.16281	144.71437	
344	6.860	-116.55524	119.16402	1055.48901	-334.03763	-58.01131	954.12823	-364.25125	257.09149	951.26239	-507.21960	83.65464	929.10083	-798.88788	-19.26222	960.29584	-794.93536	224.37860	973.97729	-939.77557	79.38521	1097.86890	-867.62390	-86.15917	854.29675	-780.49878	-12.70805	799.56018	-859.06805	-76.72458	740.01178	-838.22998	-45.24591	604.21252	-819.82788	65.07935	563.01886	-833.11768	-43.25138	554.90247	-773.53815	9.30458	523.70343	-848.94659	-56.94324	466.28134	-763.56262	-26.04386	201.65913	-647.27728	-67.03048	161.69803	-604.94244	-72.22664	157.20348	-548.89612	-20.50832	162.87442	-601.16815	30.31933	165.93718	-731.91547	64.36389	221.42415	-675.85785	52.21940	162.92526	-796.02527	32.87053	172.09512	-899.32434	279.57355	859.94519	-784.17297	212.26225	787.62018	-869.80591	276.20071	724.73566	-868.63916	251.26349	621.09680	-819.12201	141.37206	563.41498	-850.69006	247.07628	558.08057	-787.88599	203.15837	533.99109	-866.75305	260.82086	478.73779	-774.15930	232.48109	201.14650	-659.02631	296.96606	157.96407	-622.28796	304.43994	159.04305	-558.11005	251.31471	164.11998	-594.45453	215.99532	173.22183	-724.63885	158.48305	222.41187	-677.95728	174.74113	163.23201	-800.66730	185.07423	179.78021	-528.15295	304.04172	146.34819	-518.20520	-72.72089	143.03233	-875.98376	-78.48289	140.99564	-882.51862	296.13882	144.67053	
345	6.880	-116.83813	119.09978	1057.41467	-334.17529	-57.84916	956.69690	-364.26880	256.90540	952.19312	-507.01642	83.85421	930.97278	-798.56152	-18.95458	960.59271	-795.10907	224.67087	974.10553	-940.14594	79.55199	1097.74939	-868.06921	-85.89303	854.24652	-780.78674	-12.69510	799.48431	-859.48120	-76.54337	739.88721	-838.54718	-45.08500	604.08020	-819.94379	65.19057	562.86609	-833.42102	-43.11201	554.80585	-773.71594	9.35133	523.56409	-849.27771	-56.86231	466.13416	-763.61475	-25.98119	201.62006	-647.32190	-67.02839	161.65079	-604.94104	-72.26692	157.25259	-548.92279	-20.51591	162.86049	-601.19312	30.26637	165.96786	-733.15515	64.61016	222.66269	-675.87848	52.40557	162.95227	-796.00562	33.01030	172.00458	-899.44952	279.77457	859.85376	-784.40674	212.48491	787.33118	-870.13068	276.48877	724.61829	-868.84607	251.43642	620.94495	-819.22321	141.59706	563.24780	-850.81329	247.23178	558.05548	-788.11554	203.22263	533.88885	-866.89026	261.09875	478.64627	-774.21844	232.42766	201.08893	-659.03754	296.97827	157.96402	-622.31036	304.48886	159.03258	-558.17395	251.35194	164.10799	-594.46161	216.03072	173.25191	-724.65088	158.43031	222.38745	-677.92670	174.69748	163.22823	-800.66418	185.05547	179.71255	-528.16602	304.04373	146.35562	-518.19373	-72.68870	143.02457	-875.96991	-78.47499	140.99312	-882.53583	296.13818	144.64752	
346	6.900	-117.17578	119.02978	1059.67505	-334.42252	-57.66574	959.69586	-364.24985	256.79935	953.46149	-506.84631	84.07180	933.06329	-798.20569	-18.64573	960.94177	-795.35620	224.95654	974.29907	-940.60455	79.77289	1097.59326	-868.52405	-85.60609	854.23334	-781.09290	-12.68543	799.50049	-859.88403	-76.37771	739.76294	-838.89075	-44.97377	603.98566	-820.19775	65.31899	562.70746	-833.79669	-43.01436	554.76746	-773.95453	9.35673	523.40375	-849.58844	-56.88393	466.06354	-763.69867	-25.95045	201.60109	-647.39484	-67.04134	161.60631	-604.95886	-72.28339	157.28525	-548.94983	-20.51581	162.83977	-601.22485	30.18519	165.99051	-732.20160	64.36950	221.56396	-675.89899	52.54637	162.98590	-796.03760	33.08716	171.95105	-899.62170	280.01807	859.74469	-784.67084	212.66127	787.10815	-870.40845	276.81006	724.52319	-869.03552	251.61526	620.80188	-819.42548	141.80408	563.10400	-850.91345	247.41100	558.04730	-788.34393	203.27754	533.77942	-866.99005	261.34982	478.47882	-774.24847	232.38954	201.02798	-659.03625	296.96994	157.97841	-622.33771	304.54895	159.05084	-558.21045	251.37946	164.09599	-594.49133	216.06320	173.28369	-724.64734	158.40570	222.38200	-677.92181	174.68700	163.19872	-800.67395	185.05351	179.65442	-528.17474	304.02097	146.36797	-518.18512	-72.63670	143.03973	-875.96362	-78.46326	140.98027	-882.54651	296.16333	144.65761	
347	6.920	-117.53815	118.93778	1062.29907	-334.78088	-57.45997	963.13068	-364.21970	256.79440	955.17877	-506.70993	84.30769	935.37323	-797.81915	-18.33675	961.34436	-795.62482	225.23421	974.59924	-941.17407	80.07716	1097.36572	-868.91675	-85.34195	854.27502	-781.37122	-12.60904	799.53900	-860.20691	-76.18219	739.64838	-839.25629	-44.90975	603.92694	-820.58679	65.48136	562.53912	-834.18073	-42.94074	554.75842	-774.21423	9.35838	523.26306	-849.88892	-56.95529	466.04904	-763.85156	-25.91438	201.56691	-647.47150	-67.04968	161.57524	-605.00128	-72.27554	157.28787	-548.96423	-20.50507	162.82643	-601.24951	30.09846	166.01074	-731.17908	64.11099	220.37799	-675.91443	52.62948	163.00928	-796.14648	33.12148	171.94159	-899.78491	280.26169	859.63098	-784.91821	212.73651	786.94897	-870.53638	277.06558	724.45496	-869.17224	251.80774	620.69397	-819.68915	142.01436	563.02307	-850.98645	247.59109	558.03516	-788.50354	203.37370	533.69037	-867.02692	261.54538	478.26672	-774.25781	232.37527	200.98593	-659.02771	296.94974	157.99345	-622.35962	304.61081	159.08472	-558.21301	251.38625	164.09872	-594.51874	216.09904	173.31729	-724.64282	158.41342	222.38945	-677.93878	174.69795	163.15219	-800.69379	185.06194	179.58943	-528.17834	304.00388	146.38948	-518.18054	-72.57020	143.07257	-875.96313	-78.45868	140.96503	-882.54333	296.19095	144.67957	
348	6.940	-117.91461	118.81956	1065.35938	-335.25211	-57.23076	967.00696	-364.23947	256.89081	957.38696	-506.60803	84.56215	937.90314	-797.40094	-18.02875	961.80182	-795.85217	225.48322	975.01605	-941.84009	80.43009	1097.09204	-869.24103	-85.10413	854.33618	-781.63489	-12.46224	799.50012	-860.46777	-75.95177	739.55011	-839.66913	-44.87905	603.85681	-821.05829	65.65144	562.35901	-834.55042	-42.84341	554.70282	-774.49536	9.39610	523.14862	-850.23041	-56.95750	465.99472	-764.07172	-25.84529	201.48903	-647.52533	-67.05436	161.56528	-605.05432	-72.26560	157.26285	-548.97198	-20.49850	162.83345	-601.25806	30.02893	166.02863	-730.70789	63.96014	219.78864	-675.92346	52.65793	163.01842	-796.31439	33.14000	171.94582	-899.89307	280.43246	859.53662	-785.13623	212.72095	786.82739	-870.54614	277.20172	724.40710	-869.27356	251.98602	620.59949	-819.96954	142.23326	562.99487	-851.05328	247.72992	557.96466	-788.59790	203.52675	533.64508	-867.03406	261.70197	478.07840	-774.25568	232.37712	200.97003	-659.01575	296.92563	157.99791	-622.37006	304.66083	159.09706	-558.18829	251.37767	164.10953	-594.52924	216.13644	173.36493	-724.63281	158.42661	222.39771	-677.96783	174.70633	163.10765	-800.71075	185.05847	179.51427	-528.18481	304.00754	146.40512	-518.17920	-72.53218	143.09592	-875.96838	-78.46062	140.95244	-882.53333	296.19226	144.68221	
